<svg width="48" height="48" viewBox="0 0 48 48" fill="none" xmlns="http://www.w3.org/2000/svg">
<g clip-path="url(#clip0_106_294)">
<path d="M47.5837 34.9237L42.6637 32.4637L39.5325 24.3187C39.4956 24.2224 39.4393 24.1347 39.367 24.0612C39.2948 23.9876 39.2081 23.9298 39.1125 23.8912L19.6837 16.125C19.5479 16.0709 19.3992 16.0577 19.256 16.087C19.1127 16.1163 18.9812 16.1869 18.8775 16.29L16.2862 18.8812C16.1845 18.985 16.1151 19.1161 16.0865 19.2585C16.0578 19.401 16.0712 19.5487 16.125 19.6837L23.8912 39.1125C23.9298 39.2081 23.9876 39.2948 24.0612 39.367C24.1348 39.4393 24.2224 39.4956 24.3187 39.5325L32.4637 42.6637L34.9237 47.5837C34.9755 47.6922 35.0526 47.7866 35.1486 47.8591C35.2445 47.9315 35.3565 47.9798 35.475 48C35.5149 48.0037 35.5551 48.0037 35.595 48C35.7936 47.9991 35.9837 47.9196 36.1237 47.7787L47.7787 36.1237C47.8645 36.0409 47.9293 35.9389 47.9678 35.8261C48.0063 35.7133 48.0173 35.5929 48 35.475C47.9799 35.3564 47.9315 35.2445 47.8591 35.1486C47.7867 35.0526 47.6922 34.9755 47.5837 34.9237ZM17.6962 19.5862L18.1125 19.1737L27.7837 28.845C27.1464 29.7481 26.8711 30.8576 27.0123 31.9539C27.1536 33.0503 27.7011 34.0537 28.5466 34.7658C29.3921 35.4779 30.474 35.8468 31.5784 35.7996C32.6828 35.7524 33.7293 35.2925 34.5109 34.5109C35.2925 33.7292 35.7524 32.6828 35.7996 31.5784C35.8468 30.474 35.4779 29.392 34.7658 28.5466C34.0537 27.7011 33.0503 27.1536 31.9539 27.0123C30.8576 26.8711 29.7481 27.1463 28.845 27.7837L19.1737 18.1125L19.5862 17.6962L38.25 25.1625L41.1937 32.82L32.82 41.1937L25.1625 38.25L17.6962 19.5862ZM31.3875 28.4737C32.0615 28.4747 32.7144 28.7094 33.2348 29.1378C33.7553 29.5661 34.1111 30.1617 34.2417 30.823C34.3723 31.4842 34.2696 32.1704 33.951 32.7644C33.6325 33.3584 33.1178 33.8237 32.4948 34.0808C31.8717 34.338 31.1787 34.3712 30.5339 34.1747C29.8891 33.9783 29.3324 33.5643 28.9586 33.0034C28.5847 32.4426 28.4169 31.7694 28.4837 31.0987C28.5506 30.4279 28.8478 29.8011 29.325 29.325C29.8725 28.7791 30.6143 28.473 31.3875 28.4737ZM35.8012 45.9825L33.9262 42.2325L42.225 33.9337L45.975 35.8087L35.8012 45.9825Z" fill="white"/>
<path d="M14.3436 40.125C14.2002 39.9894 14.0103 39.9139 13.813 39.9139C13.6156 39.9139 13.4258 39.9894 13.2824 40.125L12.3299 41.0775C9.78804 37.6277 8.3858 33.4708 8.31858 29.1862C8.25136 24.9016 9.52251 20.7028 11.9549 17.175C12.6836 17.576 13.5227 17.73 14.3463 17.614C15.17 17.498 15.9338 17.1182 16.5235 16.5315C17.1131 15.9448 17.4967 15.1829 17.6169 14.3598C17.737 13.5368 17.5872 12.697 17.1899 11.9662C20.7177 9.53387 24.9165 8.26272 29.2011 8.32994C33.4857 8.39716 37.6426 9.7994 41.0924 12.3412L40.1249 13.2825C39.9854 13.4231 39.9072 13.6132 39.9074 13.8112C39.9068 13.9099 39.9257 14.0078 39.963 14.0992C40.0004 14.1905 40.0554 14.2736 40.1249 14.3437L43.4324 17.625C43.5729 17.7647 43.763 17.8431 43.9611 17.8431C44.1593 17.8431 44.3493 17.7647 44.4899 17.625L47.7786 14.3362C47.8483 14.2666 47.9037 14.1839 47.9414 14.0928C47.9792 14.0018 47.9986 13.9042 47.9986 13.8056C47.9986 13.707 47.9792 13.6094 47.9414 13.5184C47.9037 13.4274 47.8483 13.3446 47.7786 13.275L44.4899 9.98623C44.3493 9.84654 44.1593 9.76814 43.9611 9.76814C43.763 9.76814 43.5729 9.84654 43.4324 9.98623L42.1611 11.25C39.028 8.89234 35.3238 7.41109 31.429 6.95834C27.5342 6.50559 23.589 7.09765 19.9986 8.67373L24.3224 4.36123C24.8126 4.59548 25.37 4.64851 25.8956 4.5109C26.4213 4.37329 26.8812 4.05394 27.1937 3.6095C27.5063 3.16507 27.6513 2.62428 27.6031 2.08308C27.5549 1.54188 27.3165 1.03526 26.9303 0.653086C26.5441 0.270915 26.035 0.0379047 25.4933 -0.00460754C24.9516 -0.0471197 24.4124 0.103615 23.9713 0.420855C23.5302 0.738095 23.2157 1.20133 23.0836 1.72838C22.9516 2.25543 23.0105 2.81222 23.2499 3.29998L15.9524 10.6087C15.2114 10.1117 14.3209 9.88736 13.4329 9.97401C12.5449 10.0607 11.7146 10.4529 11.0837 11.0838C10.4528 11.7147 10.0605 12.545 9.97389 13.433C9.88725 14.321 10.1116 15.2115 10.6086 15.9525L3.29987 23.25C2.8102 23.0114 2.2518 22.9541 1.72389 23.0883C1.19598 23.2225 0.732758 23.5396 0.416527 23.9831C0.100297 24.4266 -0.0484574 24.9679 -0.0033017 25.5107C0.041854 26.0535 0.277995 26.5628 0.66316 26.9479C1.04832 27.3331 1.55757 27.5692 2.1004 27.6144C2.64323 27.6596 3.18449 27.5108 3.628 27.1946C4.07151 26.8783 4.38855 26.4151 4.52277 25.8872C4.657 25.3593 4.59972 24.8009 4.36112 24.3112L8.68486 19.9987C7.10721 23.5881 6.51328 27.5328 6.96405 31.4276C7.41482 35.3224 8.89405 39.0271 11.2499 42.1612L9.98237 43.4325C9.84268 43.573 9.76427 43.7631 9.76427 43.9612C9.76427 44.1594 9.84268 44.3495 9.98237 44.49L13.2711 47.7787C13.4111 47.9196 13.6013 47.9991 13.7999 48C13.8988 48.0001 13.9968 47.9805 14.0882 47.9426C14.1796 47.9046 14.2626 47.8489 14.3324 47.7787L17.6249 44.49C17.7646 44.3495 17.843 44.1594 17.843 43.9612C17.843 43.7631 17.7646 43.573 17.6249 43.4325L14.3436 40.125ZM43.9686 11.5687L46.1961 13.7962L43.9686 16.0237L41.7411 13.7962L43.9686 11.5687ZM24.7499 1.73623C24.8613 1.62387 25.0036 1.54715 25.1587 1.51581C25.3139 1.48446 25.4748 1.4999 25.6211 1.56016C25.7675 1.62043 25.8926 1.7228 25.9806 1.85429C26.0687 1.98579 26.1157 2.14048 26.1157 2.29873C26.1157 2.45698 26.0687 2.61167 25.9806 2.74317C25.8926 2.87466 25.7675 2.97703 25.6211 3.0373C25.4748 3.09756 25.3139 3.113 25.1587 3.08165C25.0036 3.05031 24.8613 2.97359 24.7499 2.86123C24.6759 2.78739 24.6173 2.69971 24.5773 2.60319C24.5373 2.50667 24.5167 2.40321 24.5167 2.29873C24.5167 2.19425 24.5373 2.09079 24.5773 1.99427C24.6173 1.89775 24.6759 1.81007 24.7499 1.73623ZM12.1499 12.15C12.3676 11.9312 12.6265 11.7575 12.9116 11.639C13.1967 11.5205 13.5024 11.4595 13.8111 11.4595C14.1198 11.4595 14.4255 11.5205 14.7106 11.639C14.9957 11.7575 15.2546 11.9312 15.4724 12.15C15.8016 12.4787 16.0259 12.8976 16.1169 13.3538C16.2079 13.81 16.1616 14.283 15.9837 14.7128C15.8059 15.1427 15.5045 15.5101 15.1178 15.7686C14.7311 16.0272 14.2763 16.1651 13.8111 16.1651C13.3459 16.1651 12.8912 16.0272 12.5044 15.7686C12.1177 15.5101 11.8163 15.1427 11.6385 14.7128C11.4606 14.283 11.4143 13.81 11.5053 13.3538C11.5963 12.8976 11.8207 12.4787 12.1499 12.15ZM2.86487 25.875C2.71175 26.0027 2.51642 26.0685 2.31725 26.0595C2.11808 26.0505 1.92948 25.9673 1.7885 25.8263C1.64752 25.6854 1.56437 25.4968 1.55537 25.2976C1.54637 25.0984 1.61218 24.9031 1.73987 24.75C1.88994 24.6025 2.09194 24.5198 2.30237 24.5198C2.51279 24.5198 2.71479 24.6025 2.86487 24.75C2.93879 24.8238 2.99744 24.9115 3.03746 25.008C3.07747 25.1045 3.09807 25.208 3.09807 25.3125C3.09807 25.417 3.07747 25.5204 3.03746 25.6169C2.99744 25.7135 2.93879 25.8011 2.86487 25.875ZM13.8111 46.1737L11.5836 43.9462L13.8111 41.7187L16.0386 43.9462L13.8111 46.1737Z" fill="white"/>
</g>
<defs>
<clipPath id="clip0_106_294">
<rect width="48" height="48" fill="white"/>
</clipPath>
</defs>
</svg>
